<svg width="123" height="50" viewBox="0 0 123 50" fill="none" xmlns="http://www.w3.org/2000/svg">
<path d="M24.3689 0.632812L45.4729 12.8172V37.1861L24.3689 49.3706L3.26481 37.1861V12.8172L24.3689 0.632812Z" fill="#214FAB"/>
<path d="M56.7344 20.3637V10.0391H58.6067V18.756H63.0244V20.3637H56.7344Z" fill="#214FAB"/>
<path d="M67.3817 20.5407C66.6503 20.5407 65.997 20.3834 65.4216 20.0687C64.856 19.7442 64.4123 19.2919 64.0905 18.7118C63.7687 18.1316 63.6078 17.463 63.6078 16.7058C63.6078 15.9094 63.7784 15.226 64.1197 14.6557C64.4708 14.0755 64.934 13.633 65.5094 13.3282C66.0945 13.0234 66.7381 12.871 67.4402 12.871C68.1716 12.871 68.825 13.0332 69.4004 13.3577C69.9757 13.6724 70.4292 14.1148 70.7608 14.6852C71.1021 15.2555 71.2727 15.929 71.2727 16.7058C71.2727 17.4433 71.107 18.1021 70.7754 18.6823C70.4438 19.2624 69.9855 19.7197 69.4004 20.054C68.825 20.3785 68.1521 20.5407 67.3817 20.5407ZM67.411 18.9035C67.8011 18.9035 68.1375 18.8052 68.4203 18.6085C68.7129 18.402 68.942 18.1316 69.1078 17.7973C69.2736 17.4531 69.3565 17.0795 69.3565 16.6763C69.3565 16.2142 69.2639 15.8209 69.0786 15.4964C68.903 15.1719 68.669 14.9261 68.3764 14.7589C68.0839 14.5917 67.7621 14.5082 67.411 14.5082C67.0307 14.5082 66.6942 14.6016 66.4017 14.7884C66.1189 14.9752 65.8946 15.2358 65.7288 15.5701C65.5728 15.8946 65.4947 16.2732 65.4947 16.7058C65.4947 17.1385 65.5776 17.522 65.7434 17.8563C65.919 18.1906 66.153 18.4512 66.4456 18.638C66.7381 18.815 67.0599 18.9035 67.411 18.9035Z" fill="#214FAB"/>
<path d="M75.4163 23.7856C74.7532 23.7856 74.1583 23.7119 73.6317 23.5644C73.1051 23.4169 72.6858 23.176 72.3737 22.8416C72.0714 22.5171 71.9203 22.0894 71.9203 21.5584C71.9203 21.2143 71.9934 20.9144 72.1397 20.6587C72.286 20.4129 72.5102 20.1966 72.8126 20.0097C72.559 19.8622 72.3688 19.6754 72.2421 19.4492C72.1153 19.2231 72.0519 18.9625 72.0519 18.6675C72.0519 18.0185 72.3542 17.5171 72.9588 17.1631C72.7443 16.9369 72.5785 16.6813 72.4615 16.3961C72.3445 16.1011 72.286 15.7963 72.286 15.4816C72.286 14.9506 72.4127 14.4934 72.6663 14.1099C72.9198 13.7166 73.2709 13.4118 73.7195 13.1955C74.1681 12.9791 74.68 12.871 75.2554 12.871C75.6747 12.871 76.0599 12.93 76.411 13.048H79.0148V14.4639H78.0054C78.064 14.6311 78.1127 14.7982 78.1517 14.9654C78.2005 15.1326 78.2249 15.3046 78.2249 15.4816C78.2249 15.9929 78.0932 16.4453 77.8299 16.8386C77.5666 17.2319 77.2107 17.5416 76.7621 17.7678C76.3232 17.9841 75.821 18.0923 75.2554 18.0923C75.0116 18.0923 74.7873 18.0726 74.5825 18.0333C74.3777 17.9841 74.1778 17.9104 73.9828 17.8121C73.7682 17.9202 73.661 18.0923 73.661 18.3283C73.661 18.7609 74.0169 18.9773 74.7288 18.9773H76.0599C76.6451 18.9773 77.1424 19.0608 77.552 19.228C77.9713 19.3853 78.2882 19.6361 78.5028 19.9802C78.7173 20.3244 78.8246 20.762 78.8246 21.2929C78.8246 21.8043 78.6734 22.2467 78.3711 22.6204C78.0688 22.994 77.6592 23.2792 77.1424 23.4759C76.6255 23.6824 76.0502 23.7856 75.4163 23.7856ZM75.4163 22.3107C75.8844 22.3107 76.2794 22.232 76.6012 22.0747C76.9327 21.9272 77.0985 21.701 77.0985 21.3962C77.0985 20.816 76.6987 20.526 75.899 20.526H74.8458C74.4557 20.526 74.1534 20.5997 73.9389 20.7472C73.7341 20.8947 73.6317 21.111 73.6317 21.3962C73.6317 21.6223 73.7146 21.7993 73.8804 21.9272C74.0462 22.0648 74.2656 22.1632 74.5386 22.2222C74.8117 22.2812 75.1042 22.3107 75.4163 22.3107ZM75.2408 16.6173C75.6113 16.6173 75.9137 16.5141 76.1477 16.3076C76.3915 16.0913 76.5134 15.816 76.5134 15.4816C76.5134 15.1571 76.3915 14.8867 76.1477 14.6704C75.9137 14.4541 75.6113 14.3459 75.2408 14.3459C74.8702 14.3459 74.5679 14.4541 74.3339 14.6704C74.1096 14.8867 73.9974 15.1571 73.9974 15.4816C73.9974 15.816 74.1047 16.0913 74.3192 16.3076C74.5435 16.5141 74.8507 16.6173 75.2408 16.6173Z" fill="#214FAB"/>
<path d="M83.2524 20.5407C82.521 20.5407 81.8676 20.3834 81.2923 20.0687C80.7266 19.7442 80.2829 19.2919 79.9611 18.7118C79.6393 18.1316 79.4784 17.463 79.4784 16.7058C79.4784 15.9094 79.6491 15.226 79.9904 14.6557C80.3414 14.0755 80.8047 13.633 81.38 13.3282C81.9651 13.0234 82.6088 12.871 83.3109 12.871C84.0423 12.871 84.6957 13.0332 85.271 13.3577C85.8464 13.6724 86.2999 14.1148 86.6314 14.6852C86.9727 15.2555 87.1434 15.929 87.1434 16.7058C87.1434 17.4433 86.9776 18.1021 86.646 18.6823C86.3145 19.2624 85.8561 19.7197 85.271 20.054C84.6957 20.3785 84.0228 20.5407 83.2524 20.5407ZM83.2816 18.9035C83.6717 18.9035 84.0082 18.8052 84.291 18.6085C84.5835 18.402 84.8127 18.1316 84.9785 17.7973C85.1443 17.4531 85.2271 17.0795 85.2271 16.6763C85.2271 16.2142 85.1345 15.8209 84.9492 15.4964C84.7737 15.1719 84.5396 14.9261 84.2471 14.7589C83.9545 14.5917 83.6327 14.5082 83.2816 14.5082C82.9013 14.5082 82.5649 14.6016 82.2723 14.7884C81.9895 14.9752 81.7652 15.2358 81.5994 15.5701C81.4434 15.8946 81.3654 16.2732 81.3654 16.7058C81.3654 17.1385 81.4483 17.522 81.6141 17.8563C81.7896 18.1906 82.0236 18.4512 82.3162 18.638C82.6088 18.815 82.9306 18.9035 83.2816 18.9035Z" fill="#214FAB"/>
<path d="M63.5327 39.9607C62.093 39.9607 60.8667 39.6475 59.8536 39.021C58.8405 38.3945 58.0674 37.5413 57.5342 36.4616C57.001 35.3686 56.7344 34.1289 56.7344 32.7425C56.7344 31.3562 56.9943 30.1165 57.5142 29.0235C58.034 27.9304 58.8005 27.0706 59.8136 26.4441C60.8267 25.8043 62.0664 25.4844 63.5327 25.4844C65.2122 25.4844 66.5852 25.9043 67.6516 26.7441C68.7314 27.5705 69.4045 28.7369 69.6711 30.2432H66.8518C66.6785 29.4834 66.3053 28.8902 65.7321 28.4636C65.1723 28.0237 64.4258 27.8038 63.4927 27.8038C62.6396 27.8038 61.8997 28.0037 61.2732 28.4036C60.6601 28.8035 60.1868 29.3701 59.8536 30.1032C59.5203 30.8364 59.3537 31.7161 59.3537 32.7425C59.3537 33.7556 59.5203 34.6354 59.8536 35.3819C60.1868 36.115 60.6601 36.6816 61.2732 37.0815C61.8997 37.468 62.6396 37.6613 63.4927 37.6613C64.4258 37.6613 65.1723 37.4614 65.7321 37.0615C66.3053 36.6482 66.6785 36.0817 66.8518 35.3619H69.6711C69.4045 36.8015 68.7314 37.9279 67.6516 38.741C66.5852 39.5542 65.2122 39.9607 63.5327 39.9607Z" fill="#214FAB"/>
<path d="M71.7609 39.7208V25.7243H74.3203V37.5413H80.3587V39.7208H71.7609Z" fill="#214FAB"/>
<path d="M82.4613 39.7208V25.7243H85.0207V39.7208H82.4613Z" fill="#214FAB"/>
<path d="M87.5772 39.7208V25.7243H96.555V27.9038H90.1366V31.2429H95.6352V33.4224H90.1366V37.5413H96.555V39.7208H87.5772Z" fill="#214FAB"/>
<path d="M98.8049 39.7208V25.7243H101.364L107.943 35.5019V25.7243H110.502V39.7208H107.943L101.364 29.9632V39.7208H98.8049Z" fill="#214FAB"/>
<path d="M116.318 39.7208V27.9038H112.239V25.7243H122.977V27.9038H118.878V39.7208H116.318Z" fill="#214FAB"/>
</svg>
